HIERARCHY
ROOT Hips
{
    OFFSET 0.000000 0.000000 0.000000
    CHANNELS 6 Xposition Yposition Zposition Zrotation Xrotation Yrotation
    JOINT Spine
    {
        OFFSET -0.000000 14.517291 0.000000
        CHANNELS 3 Zrotation Xrotation Yrotation
        JOINT Spine1
        {
            OFFSET -0.000000 37.558300 0.000000
            CHANNELS 3 Zrotation Xrotation Yrotation
            JOINT Neck
            {
                OFFSET -0.000000 37.404057 3.400369
                CHANNELS 3 Zrotation Xrotation Yrotation
                JOINT Head
                {
                    OFFSET -0.000000 24.785618 -3.540803
                    CHANNELS 3 Zrotation Xrotation Yrotation
                    End Site
                    {
                        OFFSET -0.000000 35.408028 0.000000
                    }
                }
            }
            JOINT LeftShoulder
            {
                OFFSET 6.992933 33.973492 -0.192664
                CHANNELS 3 Zrotation Xrotation Yrotation
                JOINT LeftArm
                {
                    OFFSET 21.527611 0.000000 0.000000
                    CHANNELS 3 Zrotation Xrotation Yrotation
                    JOINT LeftForeArm
                    {
                        OFFSET 56.353916 0.000000 0.000000
                        CHANNELS 3 Zrotation Xrotation Yrotation
                        JOINT LeftHand
                        {
                            OFFSET 47.774071 0.000000 0.000000
                            CHANNELS 3 Zrotation Xrotation Yrotation
                            End Site
                            {
                                OFFSET 26.556021 0.000000 0.000000
                            }
                        }
                    }
                }
            }
            JOINT RightShoulder
            {
                OFFSET -7.065357 33.973492 -0.192664
                CHANNELS 3 Zrotation Xrotation Yrotation
                JOINT RightArm
                {
                    OFFSET -21.527611 0.000000 0.000000
                    CHANNELS 3 Zrotation Xrotation Yrotation
                    JOINT RightForeArm
                    {
                        OFFSET -56.353916 0.000000 0.000000
                        CHANNELS 3 Zrotation Xrotation Yrotation
                        JOINT RightHand
                        {
                            OFFSET -47.774071 0.000000 0.000000
                            CHANNELS 3 Zrotation Xrotation Yrotation
                            End Site
                            {
                                OFFSET -26.556021 0.000000 0.000000
                            }
                        }
                    }
                }
            }
        }
    }
    JOINT LeftUpLeg
    {
        OFFSET 17.704014 0.000000 0.000000
        CHANNELS 3 Zrotation Xrotation Yrotation
        JOINT LeftLeg
        {
            OFFSET -0.000000 -81.181816 0.000000
            CHANNELS 3 Zrotation Xrotation Yrotation
            JOINT LeftFoot
            {
                OFFSET -0.000000 -62.821102 0.000000
                CHANNELS 3 Zrotation Xrotation Yrotation
                JOINT LeftToeBase
                {
                    OFFSET -0.000000 -11.507608 26.556021
                    CHANNELS 3 Zrotation Xrotation Yrotation
                    End Site
                    {
                        OFFSET -0.000000 0.000000 7.081605
                    }
                }
            }
        }
    }
    JOINT RightUpLeg
    {
        OFFSET -17.704014 0.000000 0.000000
        CHANNELS 3 Zrotation Xrotation Yrotation
        JOINT RightLeg
        {
            OFFSET -0.000000 -81.181816 0.000000
            CHANNELS 3 Zrotation Xrotation Yrotation
            JOINT RightFoot
            {
                OFFSET -0.000000 -62.821102 0.000000
                CHANNELS 3 Zrotation Xrotation Yrotation
                JOINT RightToeBase
                {
                    OFFSET -0.000000 -11.507608 26.556021
                    CHANNELS 3 Zrotation Xrotation Yrotation
                    End Site
                    {
                        OFFSET -0.000000 0.000000 7.081605
                    }
                }
            }
        }
    }
}
MOTION
Frames:    12
Frame Time:    0.008333
5.485913    98.597229    -107.203781    -1.296792    0.498646    43.075535    0.605236    13.102717    -3.991210    -6.900405    -5.414089    -1.627538    4.660943    1.045472    -17.635225    13.575655    -2.885393    -16.807774    6.646763    7.788252    -22.881317    -25.325367    16.181608    -55.969879    -0.493058    -11.958061    -103.645416    6.448977    -13.332996    -13.815211    -6.429567    -1.975827    -3.698843    24.728025    -24.038536    49.523369    -26.366520    -21.797510    62.746113    -1.731897    -6.384810    34.301853    49.755230    -42.172859    10.121157    -155.031204    57.211514    98.942375    2.641605    -39.924232    26.833183    0.000000    0.000000    0.000000    -63.825180    -43.325233    -47.298958    126.448273    61.574131    -102.093170    -14.147873    -31.808306    -20.217766    0.000000    0.000000    0.000000    
5.463555    98.848381    -107.220970    -1.312803    0.522937    43.052273    0.669271    12.964999    -4.000881    -7.041078    -5.311384    -1.628979    4.737250    1.072418    -17.617817    13.530897    -2.885233    -16.806377    6.667065    7.812798    -22.870663    -25.372700    16.166264    -55.947651    -0.446692    -12.008891    -103.653603    6.144294    -13.287363    -13.760887    -6.401567    -1.935552    -3.680026    24.722031    -24.008421    49.565334    -26.387934    -21.822424    62.669876    -1.692405    -6.409646    34.264690    49.568081    -42.093643    10.117214    -154.851624    57.438526    98.897270    2.688072    -39.983109    26.917734    0.000000    0.000000    0.000000    -63.633949    -43.348885    -47.187424    126.028313    61.731712    -101.862228    -13.996555    -31.774204    -20.092428    0.000000    0.000000    0.000000    
5.378510    99.159271    -107.233940    -1.324063    0.517146    42.995861    0.606325    12.920777    -3.953114    -6.968259    -5.247141    -1.608260    4.655371    1.111066    -17.623421    13.618040    -2.917871    -16.781160    6.579219    7.833282    -22.840881    -25.296062    16.113806    -56.093594    0.984798    -11.765450    -103.218552    7.236629    -11.321812    -12.447387    -6.471218    -1.943092    -3.685491    24.792229    -23.989187    49.622101    -26.369846    -21.793528    62.657143    -1.732799    -6.407754    34.308887    49.399021    -41.958252    10.097203    -154.564621    57.735424    98.780319    2.668695    -40.026936    26.954723    0.000000    0.000000    0.000000    -63.314919    -43.421902    -46.978424    125.475937    61.917561    -101.578049    -13.857651    -31.732391    -19.933901    0.000000    0.000000    0.000000    
5.326421    99.476181    -107.256912    -1.324168    0.516460    42.967365    0.618842    12.844456    -3.959577    -7.038945    -5.167639    -1.608487    4.681274    1.122989    -17.601585    13.645258    -2.880054    -16.761389    6.581325    7.876904    -22.816034    -25.363792    16.150997    -55.954330    -0.396809    -11.988663    -103.600601    6.182858    -13.209557    -13.761136    -6.452951    -1.918508    -3.673697    24.830906    -23.983181    49.695621    -26.315332    -21.782341    62.648373    -1.708909    -6.425619    34.238857    49.178982    -41.847343    10.041242    -154.289291    58.029385    98.632935    2.672985    -40.064190    27.042141    0.000000    0.000000    0.000000    -63.028748    -43.443245    -46.798870    124.939873    62.122341    -101.270409    -13.686247    -31.687078    -19.783957    0.000000    0.000000    0.000000    
5.318347    99.804214    -107.319687    -1.321649    0.575344    42.986248    0.651527    12.689052    -3.982046    -7.138662    -5.040951    -1.611670    4.732456    1.148964    -17.590727    13.603032    -2.918474    -16.758402    6.577463    7.876545    -22.825661    -25.427216    16.172333    -55.941315    -0.376827    -11.997618    -103.581551    6.114628    -13.184422    -13.737742    -6.465220    -1.909520    -3.687826    24.827299    -23.901608    49.723629    -26.400564    -21.818094    62.569084    -1.750450    -6.447289    34.258015    48.869270    -41.828484    9.979542    -154.039902    58.314766    98.586212    2.668159    -40.071590    27.081839    0.000000    0.000000    0.000000    -62.869076    -43.407856    -46.703003    124.361404    62.331566    -100.923508    -13.482299    -31.646349    -19.572504    0.000000    0.000000    0.000000    
5.221766    100.183441    -107.333580    -1.340758    0.552346    42.908871    0.584704    12.652071    -3.921083    -7.066201    -4.992685    -1.587722    4.678742    1.111683    -17.586763    13.653965    -2.810554    -16.752718    6.516920    7.933494    -22.800131    -25.358326    16.238621    -55.973557    -0.424583    -12.046404    -103.577011    6.306948    -13.313520    -13.716057    -6.489993    -1.886910    -3.710000    24.858984    -23.870386    49.796997    -26.368374    -21.808662    62.578678    -1.758717    -6.456132    34.175854    48.712921    -41.669685    9.970191    -153.692322    58.673580    98.465469    2.525213    -40.082829    27.026524    0.000000    0.000000    0.000000    -62.464897    -43.484924    -46.424503    123.653351    62.530571    -100.482590    -13.313410    -31.568922    -19.420286    0.000000    0.000000    0.000000    
5.195754    100.557564    -107.367180    -1.324059    0.554138    42.865459    0.558690    12.546707    -3.908355    -7.080368    -4.868451    -1.577576    4.729077    1.058904    -17.546640    13.580808    -2.728309    -16.741354    6.520522    7.931700    -22.781538    -25.481258    16.213911    -55.935585    -0.371357    -11.983946    -103.584648    6.153810    -13.167712    -13.717134    -6.505610    -1.879787    -3.706622    24.899498    -23.861032    49.852951    -26.346540    -21.763300    62.567326    -1.777487    -6.430889    34.163456    48.468338    -41.539139    9.869645    -153.280273    58.965485    98.235092    2.473994    -40.039425    27.033926    0.000000    0.000000    0.000000    -62.160988    -43.479988    -46.190353    122.974007    62.740204    -100.035782    -13.103648    -31.494179    -19.224621    0.000000    0.000000    0.000000    
5.153321    100.960281    -107.415436    -1.344340    0.581783    42.830803    0.531018    12.423633    -3.900889    -7.046672    -4.787401    -1.569938    4.722863    1.002450    -17.522242    13.514251    -2.622776    -16.740274    6.478420    7.974042    -22.726402    -25.472397    16.294113    -55.973682    -0.425997    -11.999896    -103.576042    6.277330    -13.263653    -13.679623    -6.536611    -1.838887    -3.711060    24.913485    -23.843632    49.938290    -26.344322    -21.739756    62.549458    -1.828423    -6.428289    34.150906    48.249454    -41.450924    9.823823    -152.852219    59.284771    98.027473    2.385209    -39.996498    27.015108    0.000000    0.000000    0.000000    -61.867233    -43.480015    -45.967590    122.150955    62.915245    -99.478661    -12.905618    -31.409531    -19.012333    0.000000    0.000000    0.000000    
5.121990    101.370811    -107.462135    -1.356216    0.600305    42.775059    0.518409    12.302789    -3.893374    -7.061753    -4.722808    -1.564813    4.736429    0.994147    -17.477276    13.490293    -2.537853    -16.709038    6.459672    8.019002    -22.680197    -25.548021    16.290462    -55.952129    -0.403806    -11.942372    -103.583115    6.179606    -13.166849    -13.667223    -6.548556    -1.821430    -3.669731    24.880051    -23.742477    49.931118    -26.402327    -21.768019    62.504181    -1.822240    -6.434208    34.181679    48.018120    -41.335121    9.822634    -152.493576    59.621254    97.903214    2.287405    -39.964314    27.020945    0.000000    0.000000    0.000000    -61.552769    -43.484417    -45.742691    121.336128    63.120178    -98.937149    -12.672930    -31.325991    -18.758238    0.000000    0.000000    0.000000    
5.107780    101.820053    -107.507721    -1.362567    0.618418    42.735767    0.512134    12.178174    -3.895040    -7.061684    -4.647665    -1.561216    4.709806    0.945086    -17.441570    13.475914    -2.403814    -16.687761    6.464465    8.035292    -22.632858    -25.607790    16.377853    -55.940865    -0.422047    -11.978618    -103.633240    6.081338    -13.210917    -13.599300    -6.597203    -1.804073    -3.677809    24.971931    -23.779682    50.028252    -26.221788    -21.678810    62.544056    -1.910514    -6.467850    34.065338    47.745514    -41.213554    9.770707    -152.068710    59.983658    97.618378    2.318742    -39.896225    27.149931    0.000000    0.000000    0.000000    -61.222038    -43.438538    -45.505058    120.428581    63.331322    -98.281769    -12.447424    -31.234289    -18.524384    0.000000    0.000000    0.000000    
5.088368    102.274979    -107.564354    -1.381023    0.638823    42.679268    0.496497    12.054573    -3.884419    -7.033307    -4.595347    -1.554083    4.685192    0.959157    -17.412054    13.477139    -2.355179    -16.658157    6.421857    8.053162    -22.576025    -25.616356    16.485365    -55.939415    -0.391705    -12.018059    -103.651260    6.112966    -13.215037    -13.570149    -6.626088    -1.783567    -3.649250    24.943291    -23.735479    50.040798    -25.717970    -21.821730    62.596981    -0.705361    -6.558617    33.295753    47.496712    -41.081680    9.791076    -151.661713    60.357738    97.413315    2.274899    -39.854546    27.231363    0.000000    0.000000    0.000000    -60.877571    -43.418388    -45.286213    119.504494    63.566845    -97.662163    -12.186859    -31.153831    -18.251978    0.000000    0.000000    0.000000    
5.087355    102.767204    -107.602486    -1.388627    0.636554    42.611065    0.486313    11.921308    -3.848126    -7.014830    -4.510898    -1.536656    4.673913    0.935795    -17.399965    13.447831    -2.250110    -16.661657    6.412622    8.053905    -22.575714    -25.654863    16.444914    -56.028931    1.057875    -11.639929    -103.286255    7.248085    -11.080724    -12.049907    -6.652707    -1.773770    -3.632774    24.901772    -23.661327    50.010452    -26.318130    -21.595007    62.583088    -1.701073    -6.243659    34.338017    47.232109    -40.885094    9.774761    -151.158279    60.746521    97.124207    2.275361    -39.806774    27.305998    0.000000    0.000000    0.000000    -60.474327    -43.373791    -45.015480    118.508392    63.818130    -96.970886    -11.914690    -31.059557    -17.945803    0.000000    0.000000    0.000000    
